<?xml version="1.0" encoding="UTF-8"?>
<svg width="50px" height="18px" viewBox="0 0 50 18" version="1.1" xmlns="http://www.w3.org/2000/svg" xmlns:xlink="http://www.w3.org/1999/xlink">
    <!-- Generator: Sketch 55.2 (78181) - https://sketchapp.com -->
    <title>Group 27</title>
    <desc>Created with Sketch.</desc>
    <defs>
        <polygon id="path-1" points="7.87401575e-05 0.142913386 17.6237008 0.142913386 17.6237008 17.7165354 7.87401575e-05 17.7165354"></polygon>
        <polygon id="path-3" points="0 17.9674016 49.7625984 17.9674016 49.7625984 0.393779528 0 0.393779528"></polygon>
    </defs>
    <g id="Page-1" stroke="none" stroke-width="1" fill="none" fill-rule="evenodd">
        <g id="CheckoutSsense" transform="translate(-361.000000, -790.000000)">
            <g id="Group-27" transform="translate(361.000000, 790.000000)">
                <g id="Group-3" transform="translate(0.000000, 0.250866)">
                    <mask id="mask-2" fill="white">
                        <use xlink:href="#path-1"></use>
                    </mask>
                    <g id="Clip-2"></g>
                    <path d="M14.8016535,0.142834646 L2.82330709,0.142834646 C1.26307087,0.142834646 7.87401575e-05,1.40307087 7.87401575e-05,2.95818898 L7.87401575e-05,14.9014961 C7.87401575e-05,16.4562205 1.26307087,17.7168504 2.82330709,17.7168504 L14.8016535,17.7168504 C16.3611024,17.7168504 17.6237008,16.4562205 17.6237008,14.9014961 L17.6237008,2.95818898 C17.6237008,1.40307087 16.3611024,0.142834646 14.8016535,0.142834646" id="Fill-1" fill="#00A0E8" mask="url(#mask-2)"></path>
                </g>
                <path d="M4.76208661,13.9079134 C2.02035433,13.9079134 1.20972441,11.7539764 2.56444882,10.5760236 C3.01681102,10.1779921 3.84358268,9.98350394 4.28374016,9.93980315 C5.91248031,9.77956693 7.41996063,10.3988583 9.19948819,11.265 C7.94870079,12.8917717 6.3557874,13.9079134 4.76208661,13.9079134 M14.5101181,11.4279921 C13.8053937,11.1929528 12.8585433,10.8323228 11.805,10.4524016 C12.4380709,9.35515748 12.943189,8.10555118 13.2758661,6.74767717 L9.80185039,6.74767717 L9.80185039,5.50003937 L14.0573622,5.50003937 L14.0573622,4.80358268 L9.80185039,4.80358268 L9.80185039,2.72366142 L8.06484252,2.72366142 C7.76011811,2.72366142 7.76011811,3.02366142 7.76011811,3.02366142 L7.76011811,4.80358268 L3.4561811,4.80358268 L3.4561811,5.50003937 L7.76011811,5.50003937 L7.76011811,6.74767717 L4.2065748,6.74767717 L4.2065748,7.44413386 L11.0987008,7.44413386 C10.8463386,8.31027559 10.5077559,9.12405512 10.1057874,9.8630315 C7.86956693,9.12720472 5.48334646,8.53074803 3.98413386,8.89807087 C3.02547244,9.13350394 2.40814961,9.55397638 2.04515748,9.99452756 C0.38019685,12.0142126 1.57429134,15.0823228 5.09043307,15.0823228 C7.16956693,15.0823228 9.17232283,13.926811 10.724685,12.0216929 C13.0396457,13.1315354 17.6235039,15.0370472 17.6235039,15.0370472 L17.6235039,12.3216929 C17.6235039,12.3216929 17.0483071,12.2756299 14.5101181,11.4279921" id="Fill-4" fill="#FEFEFE"></path>
                <path d="M42.7086614,3.1488189 L47.7535433,3.1488189 L47.7535433,4.1476378 L49.5555118,4.1476378 L49.5555118,3.1488189 L49.5555118,2.96417323 C49.5551181,2.96141732 49.5547244,2.96023622 49.5547244,2.95708661 C49.5547244,2.69133858 49.3464567,2.47598425 49.088189,2.47125984 L46.1720472,2.47125984 L46.1720472,1.54055118 L44.2866142,1.54055118 L44.2866142,2.47125984 L40.9070866,2.47125984 L40.9070866,2.81023622 L40.9070866,3.1488189 L40.9070866,4.1476378 L42.7086614,4.1476378 L42.7086614,3.1488189 Z" id="Fill-6" fill="#3F3A3A"></path>
                <polygon id="Fill-8" fill="#3F3A3A" points="31.7938583 1.62649606 29.9466142 5.9953937 31.363937 5.9953937 31.363937 11.1942126 32.9135433 11.1942126 32.9135433 4.29854331 32.352126 4.29854331 33.5190551 1.62649606"></polygon>
                <path d="M49.7625984,10.9559449 L49.1964567,9.04374016 C49.1586614,8.92169291 49.0484252,8.83311024 48.9169291,8.83311024 L47.4169291,8.83311024 L47.8515748,10.3016142 L46.088189,10.3016142 L46.088189,7.45712598 L49.5515748,7.45712598 L49.5515748,6.77996063 L46.088189,6.77996063 L46.088189,5.44098425 L49.5515748,5.44098425 L49.5515748,4.7638189 L46.088189,4.7638189 L44.3708661,4.7638189 L40.9070866,4.7638189 L40.9070866,5.44098425 L44.3708661,5.44098425 L44.3708661,6.77996063 L40.9070866,6.77996063 L40.9070866,7.45712598 L44.3708661,7.45712598 L44.3708661,10.3016142 L40.9070866,10.3016142 L40.9070866,10.9791732 L49.7625984,10.9791732 L49.7551181,10.9559449 L49.7625984,10.9559449 Z" id="Fill-10" fill="#3F3A3A"></path>
                <path d="M35.756811,5.20787402 C35.6981496,5.08779528 35.5776772,5.00511811 35.4379134,5.00393701 L34.0965748,5.00393701 L35.1418504,8.29488189 L36.7288583,8.29488189 L35.756811,5.20787402 Z" id="Fill-12" fill="#3F3A3A"></path>
                <path d="M39.1526772,1.70590551 L37.5424409,1.70590551 L37.5424409,3.38858268 L33.5731496,3.38858268 L33.5731496,4.06614173 L37.5424409,4.06614173 L37.5424409,10.115748 C37.5286614,10.253937 37.4192126,10.361811 37.2825984,10.3692913 L36.4640945,10.3692913 L36.4640945,11.0704724 L38.5511024,11.0704724 C38.8814173,11.0562992 39.1455906,10.7830709 39.1526772,10.4425197 L39.1526772,10.3692913 L39.1526772,4.06614173 L39.8070079,4.06614173 L39.8070079,3.38858268 L39.1526772,3.38858268 L39.1526772,1.70590551 Z" id="Fill-14" fill="#3F3A3A"></path>
                <path d="M29.1038976,4.77169291 L26.0101969,4.77169291 L26.0101969,3.6630315 L29.5972047,3.6630315 L29.5972047,2.97248031 L26.0101969,2.97248031 L26.0101969,1.56775591 L24.411378,1.56775591 L24.4109843,1.56814961 C24.2357874,1.56814961 24.0940551,1.7146063 24.0940551,1.89570866 L24.0940551,1.89610236 L24.0940551,2.97248031 L20.5322441,2.97248031 L20.5322441,3.6630315 L24.0940551,3.6630315 L24.0940551,4.77169291 L21.0877559,4.77169291 L21.0877559,5.46145669 L27.0759449,5.46145669 C27.0759449,5.46145669 26.7440551,6.75712598 25.1015354,8.14964567 C23.6302756,7.03547244 23.1381496,6.14846457 23.1381496,6.14846457 L21.5318504,6.14846457 C22.1814567,7.27444882 23.1054724,8.17681102 24.0995669,8.89216535 C23.1857874,9.48586614 22.0015354,10.0583071 20.4696457,10.5161811 L20.4696457,11.3429528 C20.4696457,11.3429528 22.8326378,10.8972835 25.1168898,9.55122047 C27.404685,10.8862598 29.7023228,11.3429528 29.7023228,11.3429528 L29.7023228,10.5602756 C28.2318504,10.0248425 27.0668898,9.43665354 26.1519291,8.86854331 C27.477126,7.88704724 28.6381496,6.55437008 29.1038976,4.77169291" id="Fill-16" fill="#3F3A3A"></path>
                <path d="M23.3012205,13.6434252 L23.8559449,15.306811 L22.726811,15.306811 L23.3012205,13.6434252 Z M24.0264173,15.8119291 L24.2937402,16.6198031 L25.0437402,16.6198031 L23.5669685,12.6099606 L22.9941339,12.6099606 L21.5224803,16.6198031 L22.272874,16.6198031 L22.5520079,15.8119291 L24.0264173,15.8119291 Z" id="Fill-18" fill="#3F3A3A"></path>
                <polygon id="Fill-20" fill="#3F3A3A" points="27.4097244 12.6099606 27.4097244 16.6198031 29.8376772 16.6198031 29.8376772 16.0737402 28.131378 16.0737402 28.131378 12.6099606"></polygon>
                <mask id="mask-4" fill="white">
                    <use xlink:href="#path-3"></use>
                </mask>
                <g id="Clip-23"></g>
                <polygon id="Fill-22" fill="#3F3A3A" mask="url(#mask-4)" points="32.4830709 16.6197638 33.2047244 16.6197638 33.2047244 12.6099213 32.4830709 12.6099213"></polygon>
                <path d="M37.6459449,14.5273228 L36.8498819,14.5273228 L36.8498819,13.1552756 L37.6459449,13.1552756 C38.0463386,13.1552756 38.2857087,13.5052756 38.2857087,13.844252 C38.2857087,14.1749606 38.0616929,14.5273228 37.6459449,14.5273228 M37.6868898,12.61 L36.1282283,12.61 L36.1282283,16.6194488 L36.8498819,16.6194488 L36.8498819,15.0781102 L37.6868898,15.0781102 C38.4640551,15.0781102 39.0073622,14.5702362 39.0073622,13.844252 C39.0073622,13.1174803 38.4640551,12.61 37.6868898,12.61" id="Fill-24" fill="#3F3A3A" mask="url(#mask-4)"></path>
                <path d="M42.5175984,13.6434252 L43.0723228,15.306811 L41.9427953,15.306811 L42.5175984,13.6434252 Z M43.2427953,15.8119291 L43.5105118,16.6198031 L44.2601181,16.6198031 L42.7833465,12.6099606 L42.2101181,12.6099606 L40.7388583,16.6198031 L41.489252,16.6198031 L41.7683858,15.8119291 L43.2427953,15.8119291 Z" id="Fill-25" fill="#3F3A3A" mask="url(#mask-4)"></path>
                <polygon id="Fill-26" fill="#3F3A3A" mask="url(#mask-4)" points="48.2774016 12.6099606 47.4907874 14.3182283 46.6919685 12.6099606 45.9128346 12.6099606 47.1270079 14.9725591 47.1270079 16.6198031 47.8427559 16.6198031 47.8427559 14.9725591 47.8474803 14.9635039 49.0569291 12.6099606"></polygon>
            </g>
        </g>
    </g>
</svg>