<?xml version="1.0" encoding="UTF-8"?>
<svg width="50px" height="12px" viewBox="0 0 50 12" version="1.1" xmlns="http://www.w3.org/2000/svg" xmlns:xlink="http://www.w3.org/1999/xlink">
    <!-- Generator: Sketch 55.2 (78181) - https://sketchapp.com -->
    <title>paypal 2</title>
    <desc>Created with Sketch.</desc>
    <g id="Page-1" stroke="none" stroke-width="1" fill="none" fill-rule="evenodd">
        <g id="CheckoutSsense" transform="translate(-367.000000, -751.000000)">
            <g id="paypal-2" transform="translate(367.000000, 751.000000)">
                <g id="paypal">
                    <g id="PayPal">
                        <path d="M18.6334677,2.59178187 L15.8758065,2.59178187 C15.6870968,2.59178187 15.5266129,2.72235023 15.4971774,2.89976959 L14.3818548,9.6344086 C14.3596774,9.76728111 14.4677419,9.88709677 14.6092742,9.88709677 L15.9258065,9.88709677 C16.1145161,9.88709677 16.275,9.75652842 16.3044355,9.57872504 L16.6052419,7.76228879 C16.6342742,7.58448541 16.7951613,7.45391705 16.9834677,7.45391705 L17.8564516,7.45391705 C19.6729839,7.45391705 20.721371,6.61674347 20.9951613,4.9577573 C21.1185484,4.23195084 21.0004032,3.66167435 20.6435484,3.26228879 C20.2516129,2.82373272 19.5564516,2.59178187 18.6334677,2.59178187 Z M18.9516129,5.05145929 C18.8008065,5.99385561 18.0447581,5.99385561 17.3137097,5.99385561 L16.8975806,5.99385561 L17.1895161,4.23387097 C17.2068548,4.12749616 17.303629,4.04915515 17.4165323,4.04915515 L17.6072581,4.04915515 C18.1052419,4.04915515 18.575,4.04915515 18.8177419,4.31950845 C18.9625,4.48079877 19.0068548,4.72043011 18.9516129,5.05145929 Z" id="Shape" fill="#253B80" fill-rule="nonzero"></path>
                        <path d="M26.8766129,5.02112135 L25.5560484,5.02112135 C25.4435484,5.02112135 25.346371,5.09946237 25.3290323,5.20583717 L25.2705645,5.55760369 L25.1782258,5.43010753 C24.8923387,5.03494624 24.2548387,4.90284178 23.6185484,4.90284178 C22.1592742,4.90284178 20.9129032,5.95545315 20.6701613,7.43202765 C20.5439516,8.16858679 20.7233871,8.87288786 21.1620968,9.3640553 C21.5645161,9.8156682 22.1403226,10.0038402 22.8254032,10.0038402 C24.0012097,10.0038402 24.6532258,9.28379416 24.6532258,9.28379416 L24.5943548,9.63325653 C24.5721774,9.76689708 24.6802419,9.88671275 24.8209677,9.88671275 L26.0104839,9.88671275 C26.1995968,9.88671275 26.3592742,9.75614439 26.3891129,9.57834101 L27.1028226,5.27380952 C27.1254032,5.14132104 27.0177419,5.02112135 26.8766129,5.02112135 Z M25.0358871,7.46889401 C24.9084677,8.18740399 24.3096774,8.66973886 23.5459677,8.66973886 C23.1625,8.66973886 22.8560484,8.55261137 22.6592742,8.33064516 C22.4641129,8.11021505 22.3899194,7.79646697 22.4520161,7.44700461 C22.5709677,6.73463902 23.1798387,6.23655914 23.9318548,6.23655914 C24.3068548,6.23655914 24.6116935,6.35522273 24.8125,6.57910906 C25.0137097,6.80529954 25.0935484,7.12096774 25.0358871,7.46889401 Z" id="Shape" fill="#253B80" fill-rule="nonzero"></path>
                        <path d="M33.9096774,5.02112135 L32.5826613,5.02112135 C32.4560484,5.02112135 32.3370968,5.08102919 32.2653226,5.1812596 L30.4350806,7.74884793 L29.6592742,5.28149002 C29.6104839,5.12711214 29.4608871,5.02112135 29.2915323,5.02112135 L27.9875,5.02112135 C27.8290323,5.02112135 27.7189516,5.16858679 27.7693548,5.31067588 L29.2310484,9.39592934 L27.8568548,11.2434716 C27.7487903,11.3890169 27.8576613,11.5890937 28.0443548,11.5890937 L29.3697581,11.5890937 C29.4955645,11.5890937 29.6133065,11.530722 29.6846774,11.4324117 L34.0983871,5.36482335 C34.2040323,5.21966206 34.0955645,5.02112135 33.9096774,5.02112135 Z" id="Path" fill="#253B80"></path>
                        <path d="M38.3032258,2.59178187 L35.5451613,2.59178187 C35.3568548,2.59178187 35.196371,2.72235023 35.1669355,2.89976959 L34.0516129,9.6344086 C34.0294355,9.76728111 34.1375,9.88709677 34.2782258,9.88709677 L35.6935484,9.88709677 C35.825,9.88709677 35.9375,9.79569892 35.9580645,9.67127496 L36.2745968,7.76228879 C36.303629,7.58448541 36.4645161,7.45391705 36.6528226,7.45391705 L37.5254032,7.45391705 C39.3423387,7.45391705 40.3903226,6.61674347 40.6645161,4.9577573 C40.7883065,4.23195084 40.6693548,3.66167435 40.3125,3.26228879 C39.9209677,2.82373272 39.2262097,2.59178187 38.3032258,2.59178187 Z M38.621371,5.05145929 C38.4709677,5.99385561 37.7149194,5.99385561 36.9834677,5.99385561 L36.5677419,5.99385561 L36.8600806,4.23387097 C36.8774194,4.12749616 36.9733871,4.04915515 37.0866935,4.04915515 L37.2774194,4.04915515 C37.775,4.04915515 38.2451613,4.04915515 38.4879032,4.31950845 C38.6326613,4.48079877 38.6766129,4.72043011 38.621371,5.05145929 Z" id="Shape" fill="#179BD7" fill-rule="nonzero"></path>
                        <path d="M46.5459677,5.02112135 L45.2262097,5.02112135 C45.1129032,5.02112135 45.0165323,5.09946237 44.9995968,5.20583717 L44.941129,5.55760369 L44.8483871,5.43010753 C44.5625,5.03494624 43.9254032,4.90284178 43.2891129,4.90284178 C41.8298387,4.90284178 40.583871,5.95545315 40.341129,7.43202765 C40.2153226,8.16858679 40.3939516,8.87288786 40.8326613,9.3640553 C41.2358871,9.8156682 41.8108871,10.0038402 42.4959677,10.0038402 C43.6717742,10.0038402 44.3237903,9.28379416 44.3237903,9.28379416 L44.2649194,9.63325653 C44.2427419,9.76689708 44.3508065,9.88671275 44.4923387,9.88671275 L45.6814516,9.88671275 C45.8697581,9.88671275 46.0302419,9.75614439 46.0596774,9.57834101 L46.7737903,5.27380952 C46.7955645,5.14132104 46.6875,5.02112135 46.5459677,5.02112135 Z M44.7052419,7.46889401 C44.578629,8.18740399 43.9790323,8.66973886 43.2153226,8.66973886 C42.8326613,8.66973886 42.5254032,8.55261137 42.328629,8.33064516 C42.1334677,8.11021505 42.0600806,7.79646697 42.121371,7.44700461 C42.241129,6.73463902 42.8491935,6.23655914 43.6012097,6.23655914 C43.9762097,6.23655914 44.2810484,6.35522273 44.4818548,6.57910906 C44.683871,6.80529954 44.7637097,7.12096774 44.7052419,7.46889401 Z" id="Shape" fill="#179BD7" fill-rule="nonzero"></path>
                        <path d="M48.1028226,2.7764977 L46.9709677,9.6344086 C46.9487903,9.76728111 47.0568548,9.88709677 47.1975806,9.88709677 L48.3354839,9.88709677 C48.5245968,9.88709677 48.6850806,9.75652842 48.7141129,9.57872504 L49.8302419,2.84447005 C49.8524194,2.71159754 49.7443548,2.59139785 49.603629,2.59139785 L48.3294355,2.59139785 C48.2169355,2.59178187 48.1201613,2.67012289 48.1028226,2.7764977 Z" id="Path" fill="#179BD7"></path>
                        <path d="M2.92983871,11.1958525 L3.14072581,9.92012289 L2.67096774,9.90975422 L0.427822581,9.90975422 L1.98669355,0.496159754 C1.99153226,0.467741935 2.00725806,0.44124424 2.03024194,0.422427035 C2.05322581,0.403609831 2.08266129,0.393241167 2.11330645,0.393241167 L5.89556452,0.393241167 C7.15120968,0.393241167 8.01774194,0.642089094 8.47016129,1.13325653 C8.68225806,1.36367127 8.81733871,1.60445469 8.88266129,1.86943164 C8.95120968,2.14746544 8.95241935,2.4796467 8.88548387,2.88479263 L8.88064516,2.91436252 L8.88064516,3.17396313 L9.09274194,3.28840246 C9.27137097,3.37864823 9.41330645,3.48195084 9.52217742,3.60023041 C9.70362903,3.79723502 9.82096774,4.04761905 9.87056452,4.34447005 C9.92177419,4.64976959 9.90483871,5.01305684 9.82096774,5.42434716 C9.72419355,5.89746544 9.56774194,6.30952381 9.35645161,6.64669739 C9.16209677,6.95737327 8.91451613,7.21505376 8.62056452,7.41474654 C8.33991935,7.60445469 8.00645161,7.7484639 7.62943548,7.8406298 C7.2641129,7.9312596 6.84758065,7.97695853 6.39072581,7.97695853 L6.09637097,7.97695853 C5.8858871,7.97695853 5.68145161,8.04915515 5.52096774,8.17857143 C5.36008065,8.31067588 5.25362903,8.49116743 5.22096774,8.68855607 L5.19879032,8.80337942 L4.82620968,11.0518433 L4.80927419,11.1344086 C4.80483871,11.1605223 4.79717742,11.1735791 4.7858871,11.1824117 C4.77580645,11.1904762 4.76129032,11.1958525 4.74717742,11.1958525 L2.92983871,11.1958525 Z" id="Path" fill="#253B80"></path>
                        <path d="M9.29354839,2.94431644 L9.29354839,2.94431644 L9.29354839,2.94431644 C9.28225806,3.01305684 9.26935484,3.08333333 9.25483871,3.15552995 C8.75604839,5.59447005 7.04959677,6.43701997 4.87016129,6.43701997 L3.76048387,6.43701997 C3.49395161,6.43701997 3.26935484,6.62135177 3.22782258,6.87173579 L3.22782258,6.87173579 L3.22782258,6.87173579 L2.65967742,10.3033794 L2.49879032,11.2761137 C2.47177419,11.4404762 2.60483871,11.5887097 2.77903226,11.5887097 L4.74717742,11.5887097 C4.98024194,11.5887097 5.17822581,11.4274194 5.21491935,11.2085253 L5.23427419,11.1132873 L5.60483871,8.87365591 L5.62862903,8.75076805 C5.66491935,8.53110599 5.86330645,8.36981567 6.09637097,8.36981567 L6.39072581,8.36981567 C8.29758065,8.36981567 9.79032258,7.63248848 10.2266129,5.49884793 C10.408871,4.60752688 10.3145161,3.86328725 9.83225806,3.33986175 C9.68629032,3.18202765 9.50524194,3.05107527 9.29354839,2.94431644 Z" id="Path" fill="#179BD7"></path>
                        <path d="M8.77177419,2.74615975 C8.69556452,2.7250384 8.61693548,2.70583717 8.53629032,2.68855607 C8.45524194,2.67165899 8.37217742,2.65668203 8.28669355,2.64362519 C7.9875,2.59754224 7.65967742,2.57565284 7.30846774,2.57565284 L4.34395161,2.57565284 C4.27096774,2.57565284 4.2016129,2.59139785 4.13951613,2.61981567 C4.00282258,2.68241167 3.90120968,2.80568356 3.8766129,2.95660522 L3.24596774,6.76075269 L3.22782258,6.87173579 C3.26935484,6.62135177 3.49395161,6.43701997 3.76048387,6.43701997 L4.87016129,6.43701997 C7.04959677,6.43701997 8.75604839,5.59408602 9.25483871,3.15552995 C9.26975806,3.08333333 9.28225806,3.01305684 9.29354839,2.94431644 C9.16733871,2.88056836 9.03064516,2.82603687 8.88346774,2.77956989 C8.84717742,2.76804916 8.80967742,2.75691244 8.77177419,2.74615975 Z" id="Path" fill="#222D65"></path>
                        <path d="M3.8766129,2.95660522 C3.90120968,2.80568356 4.00282258,2.68241167 4.13951613,2.62019969 C4.20201613,2.59178187 4.27096774,2.57603687 4.34395161,2.57603687 L7.30846774,2.57603687 C7.65967742,2.57603687 7.9875,2.59792627 8.28669355,2.64400922 C8.37217742,2.65706605 8.45524194,2.67204301 8.53629032,2.68894009 C8.61693548,2.7062212 8.69556452,2.72542243 8.77177419,2.74654378 C8.80967742,2.75729647 8.84717742,2.76843318 8.88387097,2.77956989 C9.03104839,2.82603687 9.16774194,2.88095238 9.29395161,2.94431644 C9.44233871,2.04301075 9.29274194,1.42933948 8.78104839,0.873655914 C8.21693548,0.261904762 7.19879032,0 5.89596774,0 L2.11370968,0 C1.84758065,0 1.62056452,0.184331797 1.57943548,0.435099846 L0.00403225806,9.94546851 C-0.027016129,10.1336406 0.125403226,10.3033794 0.324596774,10.3033794 L2.65967742,10.3033794 L3.24596774,6.76075269 L3.8766129,2.95660522 Z" id="Path" fill="#253B80"></path>
                    </g>
                </g>
            </g>
        </g>
    </g>
</svg>