<?xml version="1.0" encoding="UTF-8"?>
<svg width="34px" height="21px" viewBox="0 0 34 21" version="1.1" xmlns="http://www.w3.org/2000/svg" xmlns:xlink="http://www.w3.org/1999/xlink">
    <!-- Generator: Sketch 55.2 (78181) - https://sketchapp.com -->
    <title>visa 2</title>
    <desc>Created with Sketch.</desc>
    <defs>
        <rect id="path-1" x="0" y="0" width="33.6785714" height="20.5" rx="1.2"></rect>
    </defs>
    <g id="Page-1" stroke="none" stroke-width="1" fill="none" fill-rule="evenodd">
        <g id="CheckoutSsense" transform="translate(-425.000000, -708.000000)">
            <g id="visa-2" transform="translate(425.000000, 708.000000)">
                <g id="visa">
                    <g id="img">
                        <g id="Visa">
                            <g id="Radio-btn/selected">
                                <g>
                                    <g id="mcvs_acc_hrz-copy">
                                        <g id="mcvs_acc_hrz-Clipped">
                                            <mask id="mask-2" fill="white">
                                                <use xlink:href="#path-1"></use>
                                            </mask>
                                            <g id="path-1"></g>
                                            <g id="mcvs_acc_hrz" mask="url(#mask-2)">
                                                <g transform="translate(-0.841964, -0.854167)" id="Group">
                                                    <g>
                                                        <rect id="Rectangle-path" fill="#FFFFFF" fill-rule="nonzero" x="0" y="0" width="35.3625" height="22.2083333"></rect>
                                                        <rect id="Rectangle-path" fill="#F7B600" fill-rule="nonzero" x="0.841964286" y="18.7916667" width="33.6785714" height="2.5625"></rect>
                                                        <rect id="Rectangle-path" fill="#1A1F71" fill-rule="nonzero" x="0.841964286" y="0.854166667" width="33.6785714" height="2.5625"></rect>
                                                        <path d="M13.2711589,6.9862379 L9.85548648,15.264715 L7.62133598,15.264715 L5.94572311,8.64630191 C5.83831202,8.2312859 5.75238316,8.10022823 5.45163213,7.92548465 C4.78979243,7.60159226 4.08932203,7.36662887 3.36785714,7.22651032 L3.41082158,6.9862379 L6.99835171,6.9862379 C7.48327882,6.98846335 7.89396131,7.35036488 7.96505144,7.83811285 L8.84582228,12.6217184 L11.0370084,6.9862379 L13.2711589,6.9862379 Z M22.014421,12.5561895 C22.014421,10.3718948 19.0498751,10.2408371 19.0713573,9.27974739 C19.0713573,8.97394615 19.3506261,8.66814483 19.9736103,8.58077306 C20.6883597,8.5129139 21.4079308,8.64114198 22.0573854,8.95210315 L22.422583,7.20466737 C21.7918478,6.95840447 21.121856,6.83252273 20.4462191,6.83333333 C18.3624442,6.83333333 16.9016535,7.96917054 16.8801712,9.5637057 C16.858689,10.7650678 17.9327998,11.4203563 18.7276419,11.8135293 C19.5224839,12.2067024 19.8232348,12.4906607 19.8232348,12.8401478 C19.8232348,13.3862215 19.1572861,13.6483369 18.5557841,13.6483369 C17.7999015,13.6695834 17.0517635,13.4888228 16.3860803,13.1241062 L15.9994003,14.9370708 C16.7432749,15.2406556 17.5395456,15.3892138 18.3409619,15.3739298 C20.5536302,15.3957727 21.9929388,14.2817824 22.014421,12.5561895 Z M27.5138683,15.264715 L29.46875,15.264715 L27.7716549,6.98616733 L25.9671488,6.98616733 C25.5711341,6.98141394 25.2128296,7.2242947 25.0648956,7.59784043 L21.8855276,15.264715 L24.0981959,15.264715 L24.5278402,14.019667 L27.2345995,14.019667 L27.5138683,15.264715 Z M25.1508245,12.3377601 L26.2678998,9.23606146 L26.9123662,12.3377601 L25.1508245,12.3377601 Z M16.2786692,6.9862379 L14.5386096,15.264715 L12.4333524,15.264715 L14.173412,6.9862379 L16.2786692,6.9862379 Z" id="Shape" fill="#1A1F71" fill-rule="nonzero"></path>
                                                    </g>
                                                </g>
                                            </g>
                                        </g>
                                    </g>
                                </g>
                            </g>
                        </g>
                    </g>
                </g>
            </g>
        </g>
    </g>
</svg>